<svg id="linkedin" xmlns="http://www.w3.org/2000/svg" width="20.293" height="20.292" viewBox="0 0 20.293 20.292">
  <path id="Path_2520" d="M17.291,19.073H14.284V14.364c0-1.123-.02-2.568-1.564-2.568-1.566,0-1.806,1.223-1.806,2.487v4.79H7.908V9.389H10.8v1.323h.04a3.165,3.165,0,0,1,2.848-1.564c3.048,0,3.609,2,3.609,4.612ZM4.515,8.065A1.745,1.745,0,1,1,6.26,6.32,1.745,1.745,0,0,1,4.515,8.065h0m1.5,11.008H3.008V9.389h3.01ZM18.79,1.783H1.5A1.481,1.481,0,0,0,0,3.246V20.61a1.481,1.481,0,0,0,1.5,1.464H18.79a1.485,1.485,0,0,0,1.5-1.464V3.245a1.484,1.484,0,0,0-1.5-1.463" transform="translate(0 -1.782)" fill="#f6db5a"/>
</svg>
