<svg xmlns="http://www.w3.org/2000/svg" width="13.333" height="16" viewBox="0 0 13.333 16">
  <g id="map-pin" transform="translate(-2)">
    <g id="Group_6851" data-name="Group 6851">
      <path id="Path_5" data-name="Path 5" d="M8.667,0a6.674,6.674,0,0,1,6.667,6.667,7.619,7.619,0,0,1-1.019,3.642,14.107,14.107,0,0,1-2.164,2.9,20.229,20.229,0,0,1-3.114,2.68.667.667,0,0,1-.74,0,20.229,20.229,0,0,1-3.114-2.68,14.107,14.107,0,0,1-2.164-2.9A7.619,7.619,0,0,1,2,6.667,6.674,6.674,0,0,1,8.667,0Zm0,14.514C9.931,13.576,14,10.276,14,6.667a5.333,5.333,0,1,0-10.667,0C3.333,10.276,7.4,13.575,8.667,14.514Z" fill="#fff"/>
      <path id="Ellipse_1" data-name="Ellipse 1" d="M1.667-1A2.667,2.667,0,1,1-1,1.667,2.67,2.67,0,0,1,1.667-1Zm0,4A1.333,1.333,0,1,0,.333,1.667,1.335,1.335,0,0,0,1.667,3Z" transform="translate(7 5)" fill="#fff"/>
    </g>
  </g>
</svg>
