<svg xmlns="http://www.w3.org/2000/svg" xmlns:xlink="http://www.w3.org/1999/xlink" width="1366" height="379" viewBox="0 0 1366 379">
  <defs>
    <clipPath id="clip-path">
      <rect id="Rectangle_841" data-name="Rectangle 841" width="1366" height="379" transform="translate(0 6023)"/>
    </clipPath>
  </defs>
  <g id="Mask_Group_5" data-name="Mask Group 5" transform="translate(0 -6023)" clip-path="url(#clip-path)">
    <g id="Group_1431" data-name="Group 1431" transform="matrix(0.883, -0.469, 0.469, 0.883, -5269.211, 5491.889)" opacity="0.09">
      <path id="Path_7120" data-name="Path 7120" d="M5339.583,3790.11c-2.443,0-4.686,1.982-6.476,5.319q2.285,2.15,4.687,4.146a28.72,28.72,0,0,1,3.434-9.234,14.637,14.637,0,0,1,1.309-1.7,6.731,6.731,0,0,1,4.9-2.56,6.641,6.641,0,0,1,4.847,2.512,11.794,11.794,0,0,1,1.346,1.75c2.732,4.088,3.809,10.9,5.272,18.671h6.731c-1.278-10.909-5.4-18.9-10.31-18.9a3.956,3.956,0,0,0-.752.068c-.287-.471-.586-.923-.884-1.328a5.253,5.253,0,0,1,1.636-.269c5.377,0,9.916,8.666,11.234,20.44h4.289v-8.628c-1.933-4.809-4.636-7.791-7.627-7.791a4.647,4.647,0,0,0-.74.068,15.738,15.738,0,0,0-.895-1.318,4.975,4.975,0,0,1,1.635-.28c2.924,0,5.6,2.558,7.627,6.782v-7.985h-1.21v-3.481h-.473v-3.829h-.739v6.551h-.981v-6.551h-.106v-32.483h1.127l1.365-4.069q-.792-4.659-1.664-9.311l-.779-4.185a1.609,1.609,0,0,0-.538-2.867l-.28-1.51a1.633,1.633,0,1,0-.565.1h.026l-.076,1.434a1.6,1.6,0,0,0-1.144,1.529,1.618,1.618,0,0,0,.979,1.491l-2.279,44.517-4.54-54.8a1.616,1.616,0,0,0-.24-3.041l-.136-1.577a1.614,1.614,0,0,0-.3-3.2,1.611,1.611,0,0,0-.183,3.213l-.125,1.539a1.62,1.62,0,0,0-.26,3.107l-4.541,54.916a10.727,10.727,0,0,0-3.953-1.818,2.011,2.011,0,0,0,.2-.9,2.016,2.016,0,1,0-4.029,0,2.147,2.147,0,0,0,.2.9,11.167,11.167,0,0,0-4.039,1.846l-4.541-54.944a1.621,1.621,0,0,0-.26-3.107l-.135-1.539a1.6,1.6,0,1,0-.472-.01l-.135,1.577a1.619,1.619,0,0,0-.249,3.041l-4.53,54.8-2.29-44.517a1.622,1.622,0,0,0,.981-1.491,1.6,1.6,0,0,0-1.145-1.529l-.078-1.434h.021a1.621,1.621,0,1,0-1.617-1.615,1.637,1.637,0,0,0,1.06,1.52l-.278,1.51a1.631,1.631,0,0,0-1.225,1.559,1.611,1.611,0,0,0,.686,1.309l-.779,4.185q-4.113,21.96-6.618,44.17c.645.846,1.288,1.693,1.961,2.53v-4.974h.98v6.185c.4.491.8.982,1.224,1.471v-8.407h.971v9.542c.4.462.808.933,1.23,1.386v-11.708h.972v12.236h-.5c.789.866,1.588,1.722,2.414,2.559a5.262,5.262,0,0,1,2.405-.6,5.074,5.074,0,0,1,1.644.279,13.39,13.39,0,0,0-.894,1.316,5.2,5.2,0,0,0-.75-.066,4.51,4.51,0,0,0-1.3.193c.624.634,1.26,1.25,1.914,1.866,1.99-3.809,4.531-6.088,7.291-6.088a5.271,5.271,0,0,1,1.636.268c-.3.415-.605.857-.885,1.327a4.025,4.025,0,0,0-.751-.067Zm26.857-38.919v21.393h-.867Zm-1.2,24.923h.981v12.235h-.981Zm-2.875,10.736h-.982v-12.227h.982Zm-.336-15.574h-.867l-1-22.144Zm-2.811-22.806.864,22.133h-.864Zm-.048,25.4h.982V3786.1h-.982Zm-1.529-26.069.491,22.134h-.867Zm-.664,25.3h.973v12.236h-.973Zm-.287-25.989-.51,22.142h-.866Zm-1.914,25.22h.971v12.226h-.971Zm-31.388,2.3h-.867l2.359-21.4-1.5,21.4Zm1.952-.684h-.876l1.366-21.393Zm1.077-.673.491-21.4.374,21.4Zm1.944-22.085.864,21.393h-.864Zm1.2,37.149h-.972V3776.1h.972Zm6.021-39.88v22.134h-.866Zm-2.165,38.39h-.972v-12.227h.972Zm-.654-15.574,1.866-22.144-1,22.144Zm2.856,14.813h-.98v-12.226h.98Zm1.54-38.294.365,22.135h-.866Zm.663,37.534h-.98v-12.234h.98Zm.289-38.215,1.366,22.142h-.876Zm1.913,37.446h-.98v-12.226h.98Z" transform="translate(-2.739 -13.502)" fill="#6e6e6e"/>
      <path id="Path_7121" data-name="Path 7121" d="M5351.219,3811.681c.126.078.241.145.366.222h7.108c-1.452-6.676-2.1-12.707-4.33-16.565a13.871,13.871,0,0,0-1.49-2.173,6.314,6.314,0,0,0-4.712-2.654,6.379,6.379,0,0,0-4.763,2.712,15.343,15.343,0,0,0-1.451,2.115,27.593,27.593,0,0,0-2.646,7.773,114.287,114.287,0,0,0,11.754,8.464,1.649,1.649,0,0,1,.155.105Z" transform="translate(-3.476 -16.395)" fill="#6e6e6e"/>
      <g id="Group_1429" data-name="Group 1429" transform="translate(5469.357 3689.748)">
        <path id="Path_7122" data-name="Path 7122" d="M5511.651,3775.49v-.953a1.876,1.876,0,0,1,1.867-1.876h.067c.221-.316.423-.644.644-.961,1.02-1.549,2.021-3.146,2.973-4.752v-4.4h-12.985v5.031h-.78v-5.926a7.583,7.583,0,0,1-4-4.175,10.668,10.668,0,0,1-.615-2.972h-1.9V3751.6c0-1.029,1.29-1.866,2.867-1.866h.048a12.717,12.717,0,0,1,3.886-3.973l.3-.221a10.894,10.894,0,0,0,1.4-1.241v-4.666h-19.682v1.5h1.972a71.94,71.94,0,0,0,.8,8.743c.078.2.136.452.221.731l.078.211a3.143,3.143,0,0,1,2.6-1.087c1.568,0,2.857.837,2.857,1.867v2.914h-3.214a18.371,18.371,0,0,0,2.568,2.664,15.867,15.867,0,0,1,1.877,2.2,7.355,7.355,0,0,1-2.126,9.562v15.6H5492.3V3769.21l-6.539.124h-3.676a3.837,3.837,0,0,1,1.837,3.626,3.789,3.789,0,0,1-2.846,3.338l-.384,4.107-.818,9.687.575.308a3.8,3.8,0,0,1-1.317,6.743l-1.008,10.984a123.6,123.6,0,0,0,33.54-32.646Zm-5.5-.953a1.872,1.872,0,1,1,3.743,0v2.9h-3.743Z" transform="translate(-5478.122 -3704.203)" fill="#6e6e6e"/>
        <path id="Path_7123" data-name="Path 7123" d="M5505.711,3737.347l-7.686-22.3h-4.3l-7.686,22.3Z" transform="translate(-5478.423 -3703.268)" fill="#6e6e6e"/>
        <path id="Path_7124" data-name="Path 7124" d="M5498.263,3713.4a3.788,3.788,0,0,0,1.711-2.915c0-3.425-3.866-4.174-3.866-7.687,0,3.512-3.868,4.252-3.868,7.687a3.765,3.765,0,0,0,1.712,2.915h4.3Z" transform="translate(-5478.658 -3702.8)" fill="#6e6e6e"/>
        <path id="Path_7125" data-name="Path 7125" d="M5485.807,3753.164v.03a10.771,10.771,0,0,1-2.954,5.751l-.423,4.541c.655-1.241,1.5-2.683,2.567-4.31a18.715,18.715,0,0,0,3.1-8c-.1-.337-.191-.635-.268-.876a44.954,44.954,0,0,1-.694-6.493.145.145,0,0,0-.288,0,46.728,46.728,0,0,1-.692,6.493c-.077.211-.154.472-.24.761h0a3.631,3.631,0,0,1,.086,1.2,3.834,3.834,0,0,1-.192.883Z" transform="translate(-5478.285 -3704.357)" fill="#6e6e6e"/>
        <path id="Path_7126" data-name="Path 7126" d="M5492.556,3769.654c2.617-1.846,3.463-3.838,3.463-5.685a6.551,6.551,0,0,0-.809-3.328,11.094,11.094,0,0,1-3.54,9.022h.877Z" transform="translate(-5478.636 -3705.004)" fill="#6e6e6e"/>
        <path id="Path_7127" data-name="Path 7127" d="M5489.5,3769.519a15.991,15.991,0,0,0,3.6-11.207c-.386-.308-.77-.586-1.136-.855-.163-.117-.306-.241-.452-.366.107,3.608-.415,9.12-3.991,12.429h1.991Z" transform="translate(-5478.479 -3704.868)" fill="#6e6e6e"/>
        <path id="Path_7128" data-name="Path 7128" d="M5486.691,3759.8c-1.779,2.809-4.357,6.33-4,9.582h1.674c1.742-1.5,5.771-5.849,5.712-13.717a10.079,10.079,0,0,1-1.287-2.164,18.287,18.287,0,0,1-2.107,6.3Z" transform="translate(-5478.293 -3704.732)" fill="#6e6e6e"/>
        <path id="Path_7129" data-name="Path 7129" d="M5505.42,3746.511c-2.05,1.528-4.551,3.193-4.839,7.175,1.645-2.79,5.511-6.118,6.945-9.226a11.253,11.253,0,0,1-2.106,2.049Z" transform="translate(-5478.978 -3704.387)" fill="#6e6e6e"/>
        <path id="Path_7130" data-name="Path 7130" d="M5501.291,3756.987a9.084,9.084,0,0,0,1.971,2.636,48.52,48.52,0,0,1,5.675-10.9,23.28,23.28,0,0,0,3.868-9.985c-.125-.414-.232-.789-.336-1.078-.386-1.106-.723-5.713-.9-8.667a.145.145,0,0,0-.29,0,63.19,63.19,0,0,1-.9,8.667c-.125.346-.25.8-.4,1.309.221,1.77.057,5.666-4.261,10.032a15.939,15.939,0,0,0-4.415,7.994Z" transform="translate(-5479.004 -3703.792)" fill="#6e6e6e"/>
        <path id="Path_7131" data-name="Path 7131" d="M5522.875,3754.705a8.249,8.249,0,0,0-1-4.154,13.831,13.831,0,0,1-4.416,11.244h1.088C5521.818,3759.487,5522.875,3757.014,5522.875,3754.705Z" transform="translate(-5479.619 -3704.62)" fill="#6e6e6e"/>
        <path id="Path_7132" data-name="Path 7132" d="M5514.742,3761.626a19.9,19.9,0,0,0,4.483-13.977c-.472-.384-.952-.73-1.414-1.077-.2-.145-.385-.3-.567-.453.134,4.5-.511,11.379-4.982,15.506Z" transform="translate(-5479.422 -3704.451)" fill="#6e6e6e"/>
        <path id="Path_7133" data-name="Path 7133" d="M5511.232,3749.509c-2.213,3.5-5.435,7.9-4.984,11.947h2.087c2.172-1.875,7.206-7.291,7.128-17.113a12.059,12.059,0,0,1-1.605-2.693A22.792,22.792,0,0,1,5511.232,3749.509Z" transform="translate(-5479.191 -3704.281)" fill="#6e6e6e"/>
      </g>
      <path id="Path_7134" data-name="Path 7134" d="M5371.331,3751.073v28.406h1.837v3.828h1.684v24.673h2.261v-24.673h2.28v24.673h1.1l.5-.961c.231-.415.452-.846.673-1.27V3783.3h2.27v17.978c.771-1.548,1.521-3.146,2.271-4.762v-9.195a5.25,5.25,0,0,1-.663-2.54v-4.464a5.231,5.231,0,0,1,5.23-5.232h4.051q2.063-5.844,3.964-12.043v-11.985h-3.5v-3.828h1.675L5393,3735.549v-8.956h1.357v-1.866l-7.255-22.7h.126l-.529-2.838h-.327l-1.308-11.408-1.115,11.408h-.4l-.674,2.886H5383l-7.234,22.652v1.866h1.346v8.956l-3.944,11.678h1.684v3.828h-3.521Zm18.132-22.595h1.78v6.964h-1.78Zm3.531,18.767v3.828h-2.271v-3.828Zm-7.052-18.767h1.77v6.964h-1.77Zm2.521,18.767v3.828h-2.27v-3.828Zm-6.051-18.767h1.77v6.964h-1.77Zm-.751,18.767h2.27v3.828h-2.27Zm-2.779-18.767h1.77v6.964h-1.77Zm-1.771,18.767h2.28v3.828h-2.28Zm7.946,8.946a9.1,9.1,0,1,1-9.092,9.09A9.088,9.088,0,0,1,5385.059,3756.191Z" transform="translate(-4.696 -12.481)" fill="#6e6e6e"/>
      <path id="Path_7135" data-name="Path 7135" d="M5474.317,3808.584l.038-.441,1.339-14.372.74.076a1.768,1.768,0,0,0,.327-3.52l-.741-.067,1.6-17.325.749.067h.03a1.439,1.439,0,0,0,.7-.087,1.76,1.76,0,0,0,0-3.337,1.5,1.5,0,0,0-.415-.087l-.3-.03-.452-.038.222-2.4.1-1.087.53-5.713.2-2.165h0l.146-1.635.4-4.309.75.066a1.813,1.813,0,0,0,1.174-.308,1.791,1.791,0,0,0,.751-1.289,1.685,1.685,0,0,0-.049-.578,1.422,1.422,0,0,0-.068-.173.706.706,0,0,0-.058-.164v-.019c0-.02,0-.02-.017-.04a1.666,1.666,0,0,0-.415-.519,1.644,1.644,0,0,0-.99-.414l-.751-.077,1.608-17.324.748.078a1.763,1.763,0,1,0,.328-3.511l-6.156-.567,1.617-17.459,1.134.106a1.761,1.761,0,0,0,.953-3.327h-.03a1.456,1.456,0,0,0-.616-.183l-1.125-.106-30.378-2.818-1.134-.106a1.723,1.723,0,0,0-.663.058h0a1.768,1.768,0,0,0,.346,3.454l1.125.115-1.615,17.449-6.147-.577a1.785,1.785,0,0,0-1.923,1.587,1.761,1.761,0,0,0,1.6,1.923l.75.078-1.606,17.324-.75-.077h-.116a3.355,3.355,0,0,1,0,.634,5.089,5.089,0,0,1-.953,2.645,1.692,1.692,0,0,0,.732.241l.749.068-1.126,12.157c1.194,4.041,2.444,7.994,3.733,11.813a3.155,3.155,0,0,1,2.116-.55,3.193,3.193,0,0,1,2.9,3.493l-.047.5h.268a5.061,5.061,0,0,1,2.463.625l.086-.875a3.213,3.213,0,1,1,6.4.6l-.818,8.792-2.9-.278v.836a5.241,5.241,0,0,1-3.627,4.983c.434,1.048.9,2.087,1.338,3.117a3.354,3.354,0,0,1,1.164-.106,3.208,3.208,0,0,1,2.906,3.492l-.414,4.511c1.048,2.135,2.107,4.223,3.183,6.233l.5.962h17.795Zm.9-49.3-.173,1.9-.414,4.511-6.406-.588.375-3.924.136-1.423.317-3.443a3.207,3.207,0,0,1,3.493-2.906,3.87,3.87,0,0,1,.758.165,3.232,3.232,0,0,1,1.992,2.01,3.364,3.364,0,0,1,.153,1.317l-.221,2.387Zm2.155-23.221-.819,8.782-1-.1-2.616-.241-1.789-.163-.981-.1.819-8.783a3.2,3.2,0,0,1,3.49-2.9,3.208,3.208,0,0,1,2.906,3.492Zm-9.033-22.076a3.206,3.206,0,1,1,6.385.586l-.806,8.792-6.4-.6.806-8.781Zm-.136,21.22-.748,8.089-.03.346-.038.366-.164-.02-.406-.038-5.836-.54.817-8.783a3.212,3.212,0,0,1,6.4.587Zm-1.933,20.843-.471,5.118-.29,3.069-.058.587-6.4-.587.81-8.782a3.208,3.208,0,0,1,2.866-2.9,2.445,2.445,0,0,1,.644,0,3.215,3.215,0,0,1,2.9,3.5Zm-7.1-42.911a3.212,3.212,0,1,1,6.4.587l-.816,8.783-6.407-.587.817-8.783Zm-.134,21.221-.819,8.782-6.405-.587.828-8.792a3.208,3.208,0,0,1,6.388.6ZM5450,3712.288a3.212,3.212,0,0,1,6.4.6l-.819,8.782-6.4-.587.808-8.792Zm-2.876,50.846-6.417-.6.819-8.783a3.212,3.212,0,1,1,6.4.6l-.808,8.782Zm1.924-20.825-6.407-.606.817-8.782a3.212,3.212,0,1,1,6.4.595l-.817,8.793Zm.826,21.085.826-8.792a3.208,3.208,0,0,1,6.388.6l-.806,8.792-6.417-.6Zm11.774,42.42-3.473-.222-2.944-.193.769-8.262a3.209,3.209,0,0,1,2.175-2.751,3.339,3.339,0,0,1,1.317-.155,3.2,3.2,0,0,1,2.9,3.492l-.741,8.1Zm1.866-20.143-6.406-.6.817-8.791a3.208,3.208,0,1,1,6.387.606l-.808,8.783Zm7.32,20.738-6.425-.414.74-8.012a3.207,3.207,0,0,1,6.387.6l-.711,7.84Zm1.837-19.881-6.406-.606.808-8.783a3.3,3.3,0,0,1,.307-1.077,3.182,3.182,0,0,1,3.194-1.828,2.623,2.623,0,0,1,.481.1,3.189,3.189,0,0,1,1.761,1.146,3.279,3.279,0,0,1,.365.6,3.157,3.157,0,0,1,.3,1.674l-.807,8.792Z" transform="translate(-7.192 -13.075)" fill="#6e6e6e"/>
      <path id="Path_7136" data-name="Path 7136" d="M5480,3704.312a1.768,1.768,0,0,0,.327-3.521l-32.638-3.021a1.768,1.768,0,0,0-.327,3.521Z" transform="translate(-7.532 -12.861)" fill="#6e6e6e"/>
      <path id="Path_7137" data-name="Path 7137" d="M5410.3,3824.488a117.35,117.35,0,0,0,16.632-1.173h.045q10.536-2.251,20.922-5.021a113.1,113.1,0,0,0,19.23-8.657H5451.97c-.769-1.539-2.117-4.406-2.607-5.358-.587-1.144-1.164-2.309-1.723-3.472-.672-1.375-1.327-2.771-1.971-4.176q-.662-1.441-1.307-2.915c-.885-2.01-1.75-4.03-2.579-6.068h1.339a3.183,3.183,0,0,0,3.182-3.194v-4.464a3.2,3.2,0,0,0-.943-2.279,3.237,3.237,0,0,0-2.25-.914h-5.481c-.386-1.068-.761-2.135-1.136-3.2-1.02-2.982-2.011-5.964-2.924-8.956q-.781-2.481-1.5-4.953c-1.242-4.2-2.377-8.369-3.445-12.466h.751a3.409,3.409,0,0,0,1.7-.453,3.178,3.178,0,0,0-1.587-5.935h-2.454c-4.2-17.633-6.752-33.658-8.29-45.124h1.577a1.117,1.117,0,0,0,1.116-1.116v-3.741a1.111,1.111,0,0,0-1.116-1.116h-.25a11.784,11.784,0,0,0-.25-1.8h.8v-1.193h-1.146a8.7,8.7,0,0,0-1.211-2.385l-1.654-5.878-1.656,5.878a8.848,8.848,0,0,0-1.222,2.385H5412.6v1.193h.788a12.2,12.2,0,0,0-.241,1.8h-.249a1.1,1.1,0,0,0-1.116,1.116v3.741a1.11,1.11,0,0,0,1.116,1.116h1.578a455.937,455.937,0,0,1-8.3,45.124h-2.338a3.261,3.261,0,0,0-3.291,2.982,3.181,3.181,0,0,0,3.175,3.405h.875c-1.336,5.175-2.81,10.465-4.435,15.794-.663,2.135-1.336,4.291-2.048,6.455-.8,2.443-1.645,4.886-2.52,7.33H5390.1a3.182,3.182,0,0,0-3.186,3.184v4.463a3.182,3.182,0,0,0,3.155,3.194h1.386c-.442,1.1-.915,2.2-1.386,3.3q-1.1,2.595-2.271,5.165-1.095,2.425-2.269,4.82c-.732,1.52-1.5,3.04-2.27,4.54-.3.578-1.472,2.9-2.116,4.166h-25.673a109.1,109.1,0,0,0,50.566,14.775c1.4.057,2.82.077,4.214.077Zm6.186-96.113c.116-3.039.221-3.1.326-.086.146,4.271.4,8.455.722,12.543h-1.769c.325-4.06.566-8.224.711-12.467Zm-1.29,18.854h2.9c1.1,10.9,2.694,20.931,4.358,29.579h-11.631c1.675-8.648,3.262-18.671,4.358-29.579Zm-8.5,48.154a10.286,10.286,0,0,1,19.93,0c.587,2.327,1.125,4.347,1.6,6.05.694,2.51,1.242,4.309,1.55,5.31.134.413.8,1.972,1.2,2.9h-28.8a145.629,145.629,0,0,0,4.531-14.255Z" transform="translate(-4.092 -12.126)" fill="#6e6e6e"/>
      <path id="Path_7138" data-name="Path 7138" d="M5326.641,3792.03h.472l-.472-.53Z" transform="translate(-2.993 -16.431)" fill="#6e6e6e"/>
      <g id="Group_1430" data-name="Group 1430" transform="translate(5248.067 3360.12)">
        <path id="Path_7139" data-name="Path 7139" d="M5397.242,3390.94c5.245,1.586,13.265,3.539,21.953,5.492l-1.8,4.8-5.725-1.434a4.344,4.344,0,0,0-2.116,8.427l4.771,1.192-6.541,17.459,4.751.549,30.059-25.991c11.322,2.317,20.316,4.04,21.442,4.223,2.665.442,13.254,2.75,13.254,2.75l-2.184,8.408,3.357-.019,7.773-6.839,7.03,1.211-2.626-5.1,20.855-18.344-4.751-.663-17.9,7.646-.125-18.642-3.6-.9s-8.138,12.216-9.745,14.429a9.863,9.863,0,0,1-8.425,3.876s-4.5-1.356-11.255-3.386l32.812-28.376-5.685-1.587L5447.138,3377l-10.563-3.3a5.178,5.178,0,0,0-4.28,9.341c-17.333-5.214-35.023-10.533-36.8-11.1-3.6-1.135-11.707-.962-16.429,2.078,0,0-4.743,1.192-5.887,3.048s6.887,8.638,24.065,13.852Z" transform="translate(-5252.83 -3360.12)" fill="#6e6e6e"/>
        <rect id="Rectangle_731" data-name="Rectangle 731" width="37.178" height="37.178" transform="matrix(0.657, -0.754, 0.754, 0.657, 409.198, 239.212)" fill="#6e6e6e"/>
        <path id="Path_7140" data-name="Path 7140" d="M5478.25,3572.81l28.032,24.422,16.843-19.334,22.19,19.334,24.424-28.029-28.03-24.423-16.843,19.333-22.19-19.333Z" transform="translate(-5256.835 -3367.154)" fill="#6e6e6e"/>
        <path id="Path_7141" data-name="Path 7141" d="M5679.016,3645.373c-11.053-.519-19.411,4.579-23.22,14.822-4.637,12.438-9.167,25.106-11.688,38.064-2.375,12.147,3.1,22.239,12.255,26.962a27.946,27.946,0,0,0,19.171,2.048c2.53-.6,5.07-1.222,8.4-2.048-5.417,26.3-30.05,41.2-50.029,35.994-14.669-3.819-26.174-18.276-28.377-35.994a97.471,97.471,0,0,1-5.2-16.892c-4.021-20.479-5.655-41.439-7.56-62.283-.3-3.175,2.741-7.359,5.338-9.976,8.3-8.282,17.987-15.294,25.538-24.164,24.683-28.954,36.255-63.437,41.545-100.682,4.867-34.37-4.291-64.111-26.7-90.055-2.837-3.29-7.012-5.416-13.234-10.081-4.858,17.642-12.255,32.436-12.217,47.2.039,21.932,5.349,43.863,8.416,65.786,1.213,0,2.425.008,3.636.008,3.463-9.483,6.917-18.968,11.149-30.57-.415-3.876-1.086-10.177-1.751-16.5,14.083,20.72,23.52,42.67,14.256,67.18-6.263,16.573-17.556,30.415-31.59,41.507-8.071,6.368-16.6,12.177-26.173,19.151-.365-4.617-.655-7.07-.721-9.513-.674-23.818-.915-30.041-2.05-53.829-1.673-35.629-6.55-49.23-19.873-82.811-6.743-17.035-19.161-30.694-33.878-37.822h0a53.045,53.045,0,0,0-18.508-5.232,61.034,61.034,0,0,0-8.359-.539c-.99,0-2.008.028-3.039.077-.269.01-.539.039-.8.047a31.306,31.306,0,0,1,14.765,6.446c.086.066.193.144.28.22a78.59,78.59,0,0,1,13.438,14.5c.125.192.269.385.415.577,12.407,17.719,21.43,42.488,26.789,59.938.027.106.066.191.085.3a450.9,450.9,0,0,1,11.5,53.31c1.971,19.585,3.375,28.222,5.108,53.118.4,5.848-1.492,9.368-7.177,12.811-6.569,3.973-13.36,5.416-20.3,7.734-20.114,6.753-40.18,10.543-61.611,9.822-35.831-1.213-63.813-26.366-67.7-62.9,16.669-10.591,33.494-20.961,49.74-32.167,14.89-10.273,20.22-26.855,24.077-43.68,1.049-4.56,1.019-9.369,1.453-13.678-10.869,7.733-20.114,16.025-30.79,21.556-20.008,10.359-41.979,8.321-63.5,6.454-26.827-2.317-53.56-6.907-80.387-7.513-24.009-.538-47.026,7.3-58.493,30.377-7.282,14.641-9.167,31.965-13.342,48.115-.222.867.749,2.041,1.567,4.051,1.578-2.1,2.8-3.165,3.308-4.5,7.928-20.777,23.4-31.619,45-34.763,32.012-4.646,62.879,3.762,95.959,7.532-4.876,3.963-8.59,6.781-12.091,9.85-13.812,12.11-27.932,23.9-41.245,36.533-21.029,19.95-40.545,54.588-50.347,89.978v.019c-9.58,24.327-12.428,49.769-8.8,73.412.3,2,.655,3.993,1.058,5.955a114.658,114.658,0,0,0,26.385,53.791c17.748,19.968,39.333,29.318,54.561,33.772.585.172,1.163.346,1.73.5.683.192,1.337.374,1.992.538.326.086.653.163.96.24.549.145,1.1.279,1.646.414,1.441.346,2.789.644,4.029.9.635.134,1.24.25,1.8.365.258.048.509.1.76.134.2.039.414.077.606.116h0c25.6,4.54,52.673,1,75.568-11.265h.017c.058-.037.125-.066.174-.1,1.665-.895,3.31-1.828,4.926-2.829.54-.336,1.068-.684,1.6-1.029.038-.028.078-.047.116-.077,2.616-1.653,5.329-3.482,8.08-5.511,1.356-.99,2.722-2.048,4.1-3.145,3.568-2.838,6.762-5.676,9.638-8.437.02,0,.03-.028.048-.047a.031.031,0,0,0,.027-.02c6.282-6.7,12.785-13.351,18.066-20.835,10.139-14.362,16.911-26.308,21.979-37.629,7.05-15.766,10.455-28.521,14.726-44.672,2.387-9.061,4.09-16.708,5.224-22.191l-17.659,37.178c-5.513,10.687-32.4,60.456-82.639,75.231a126.27,126.27,0,0,1-37.843,4.733,112.566,112.566,0,0,1-55.8-17.527c-25.2-15.852-44.305-41.236-50.174-70.959-1.933-9.8-2.673-19.479-.894-29.213a58.615,58.615,0,0,1,3.1-10.918c9.708-24.711,26.811-43.718,45.354-61.61,10.294-9.927,21.836-18.555,34.572-29.242l13.139-8.629c4.282-3.492,8.6-7.7,13.545-10.937a22.661,22.661,0,0,1-.048,4.059c-5.156,26.7.182,50.914,19.393,70.421,7.751,7.859,17.669,15.41,27.991,18.593,26.558,8.234,53.4,4.251,79.358-4.462,14.63-4.906,28.819-11.187,44.383-17.325.921,14.795,1.74,28.685,2.683,42.564,1.934,28.638,6.3,56.861,16.949,83.648,2.606,6.551,7.321,12.553,12.11,17.862,10.292,11.371,34.637,6.956,46.576-4.636,5.627-5.454,10.937-11.254,16.017-17.257.009,0,.027-.029.039-.029a103.151,103.151,0,0,0,15.2-19.835c.085-.154.192-.308.279-.481.538-.913,1.048-1.828,1.547-2.741a103.236,103.236,0,0,0,10.821-31.031v-.029c2.2-6.175,4.291-12.371,6.146-18.651,3.829-12.938,4.484-26.4-2.172-39-5.117-9.668-13.091-15.515-24.211-16.035Zm4.146,104.935a2.994,2.994,0,0,1,.066-.414l.106.086-.163.318Z" transform="translate(-5248.068 -3362.062)" fill="#6e6e6e"/>
      </g>
    </g>
  </g>
</svg>
