<svg xmlns="http://www.w3.org/2000/svg" width="37.633" height="48" viewBox="0 0 37.633 48">
  <path id="Path_16400" data-name="Path 16400" d="M69.6,29.144h.009l.018,0h.013l.047,0h0a8.66,8.66,0,0,0,0-17.32h-.059c-.021,0-.042,0-.062,0s-.024,0-.036,0A8.654,8.654,0,0,0,69.6,29.144Zm-6.65-5.695h1.968a9.893,9.893,0,0,0,2.346,3.984,7.394,7.394,0,0,1-4.313-3.984Zm14.1-2.961a7.34,7.34,0,0,1-.2,1.663H74.634a10.266,10.266,0,0,0,.142-1.679,10.114,10.114,0,0,0-.139-1.647h2.212a7.342,7.342,0,0,1,.2,1.663Zm-3.567.016a8.8,8.8,0,0,1-.156,1.647H70.331V18.825H73.32A8.93,8.93,0,0,1,73.479,20.5Zm-7.194,2.945h2.749V27.3a8.635,8.635,0,0,1-2.749-3.847ZM70.331,27.2V23.449h2.635A8.64,8.64,0,0,1,70.331,27.2Zm0-9.668V13.781a8.628,8.628,0,0,1,2.632,3.747Zm-1.3-3.847v3.847H66.281A8.646,8.646,0,0,1,69.034,13.681Zm0,5.144v3.326H65.928a8.935,8.935,0,0,1-.159-1.679,8.8,8.8,0,0,1,.156-1.647Zm-4.423,3.326H62.517a7.135,7.135,0,0,1,0-3.326h2.1a10.27,10.27,0,0,0-.142,1.679A10.13,10.13,0,0,0,64.611,22.151Zm7.3,5.351a9.887,9.887,0,0,0,2.414-4.054h2.089A7.4,7.4,0,0,1,71.915,27.5Zm4.5-9.975H74.333a9.892,9.892,0,0,0-2.417-4.054A7.4,7.4,0,0,1,76.419,17.528Zm-9.158-3.985a9.888,9.888,0,0,0-2.343,3.985H62.947A7.393,7.393,0,0,1,67.261,13.543ZM92.517,8.516A3.594,3.594,0,0,0,90.4,6.726L69.881.173A3.629,3.629,0,0,0,65.332,2.52L63.97,6.786H58.911a3.624,3.624,0,0,0-3.62,3.62V44.381A3.624,3.624,0,0,0,58.911,48H80.455a3.624,3.624,0,0,0,3.62-3.62v-5.93l8.677-27.175a3.6,3.6,0,0,0-.235-2.759Zm-9.74,35.865A2.325,2.325,0,0,1,80.455,46.7H58.911a2.325,2.325,0,0,1-2.323-2.323V10.406a2.326,2.326,0,0,1,2.323-2.323H80.455a2.326,2.326,0,0,1,2.323,2.323Zm8.739-33.5L84.075,34.186V10.406a3.624,3.624,0,0,0-3.62-3.62H65.331l1.236-3.871a2.331,2.331,0,0,1,2.919-1.506L90.01,7.962a2.332,2.332,0,0,1,1.506,2.919ZM78.432,34.163a.649.649,0,0,1-.649.649h-16.2a.649.649,0,1,1,0-1.3h16.2A.649.649,0,0,1,78.432,34.163Zm0,4.579a.649.649,0,0,1-.649.649h-16.2a.649.649,0,1,1,0-1.3h16.2A.649.649,0,0,1,78.432,38.741ZM74.758,43.32a.649.649,0,0,1-.649.649H65.257a.649.649,0,1,1,0-1.3h8.852A.649.649,0,0,1,74.758,43.32Z" transform="translate(-55.291 0)" fill="#fff"/>
</svg>
