<svg xmlns="http://www.w3.org/2000/svg" width="15.769" height="15.797" viewBox="0 0 15.769 15.797">
  <path id="phone" d="M14.719,16.8c-.065,0-.13,0-.195-.009h-.013a15.05,15.05,0,0,1-6.529-2.322A14.865,14.865,0,0,1,3.444,9.926,15.049,15.049,0,0,1,1.122,3.367V3.356A2.161,2.161,0,0,1,3.271,1H5.447a2.171,2.171,0,0,1,2.14,1.859v.007a8.542,8.542,0,0,0,.465,1.867A2.167,2.167,0,0,1,7.566,7.01l0,0-.517.517a10.814,10.814,0,0,0,3.3,3.3l.517-.517,0,0a2.161,2.161,0,0,1,2.28-.486,8.538,8.538,0,0,0,1.865.464h.006a2.161,2.161,0,0,1,1.859,2.184V14.63A2.161,2.161,0,0,1,14.719,16.8Zm-.059-1.443a.72.72,0,0,0,.78-.721V12.469q0-.009,0-.018a.72.72,0,0,0-.617-.731,9.984,9.984,0,0,1-2.178-.543.72.72,0,0,0-.761.16l-.913.913a.72.72,0,0,1-.865.117A12.252,12.252,0,0,1,5.513,7.775a.72.72,0,0,1,.117-.865L6.543,6A.722.722,0,0,0,6.7,5.237,9.988,9.988,0,0,1,6.16,3.058a.724.724,0,0,0-.713-.617H3.272a.72.72,0,0,0-.717.78,13.6,13.6,0,0,0,2.1,5.924l0,.005a13.415,13.415,0,0,0,4.1,4.1l.006,0A13.6,13.6,0,0,0,14.66,15.354Z" transform="translate(-1.112 -1)" fill="#fff"/>
</svg>
