<svg xmlns="http://www.w3.org/2000/svg" width="48" height="44.152" viewBox="0 0 48 44.152">
  <path id="Union_4" data-name="Union 4" d="M42.31,43.215V24.9a.937.937,0,0,1,1.875,0v7.259a2.882,2.882,0,0,0,1.94-2.72V18.283a2.881,2.881,0,0,0-2.878-2.878H33.794a2.876,2.876,0,0,0-2.379,1.258l-3.646,5.353a.938.938,0,1,1-1.55-1.056l3.647-5.354a4.748,4.748,0,0,1,3.928-2.077h9.454A4.758,4.758,0,0,1,48,18.283V29.437A4.76,4.76,0,0,1,44.185,34.1v9.12a.937.937,0,0,1-1.875,0Zm-4.984,0V33.907a.937.937,0,0,1,1.875,0v9.307a.937.937,0,0,1-1.875,0Zm-4.984,0V24.7l-1.549,1.892a.938.938,0,1,1-1.451-1.187l3.212-3.926a.938.938,0,0,1,1.663.594V43.215a.937.937,0,0,1-1.875,0Zm-15.743,0V22.076a.938.938,0,0,1,1.663-.594l5.863,7.167a1.434,1.434,0,0,0,2.412-1.508L19.4,16.663a2.875,2.875,0,0,0-2.378-1.258H7.57a2.881,2.881,0,0,0-2.878,2.878V28.8h1.94V24.9a.937.937,0,0,1,1.875,0V28.8h1.564a.938.938,0,0,1,.938.938v5.81a.937.937,0,0,1-.938.937H8.507v6.727a.937.937,0,0,1-1.875,0V36.488H.938A.937.937,0,0,1,0,35.55V29.74A.938.938,0,0,1,.938,28.8H2.817V18.283A4.758,4.758,0,0,1,7.57,13.53h9.454a4.748,4.748,0,0,1,3.928,2.077l7.173,10.534a.96.96,0,0,1,.061.1,3.309,3.309,0,0,1-5.513,3.591l-4.2-5.134V43.215a.937.937,0,1,1-1.874,0Zm-7.466-8.6V30.678H1.875v3.935H9.134Zm2.482,8.6V33.907a.937.937,0,0,1,1.875,0v9.307a.937.937,0,0,1-1.875,0Zm26.6-30.336a5.616,5.616,0,0,1-5.609-5.61V5.61A5.616,5.616,0,0,1,38.216,0h.1a5.616,5.616,0,0,1,5.609,5.61v1.66a5.616,5.616,0,0,1-5.61,5.61ZM34.481,5.61v1.66A3.739,3.739,0,0,0,38.216,11h.1a3.739,3.739,0,0,0,3.734-3.735V5.61a3.739,3.739,0,0,0-3.735-3.735h-.1A3.739,3.739,0,0,0,34.481,5.61ZM12.505,12.879A5.616,5.616,0,0,1,6.9,7.269V5.61A5.616,5.616,0,0,1,12.505,0h.1a5.616,5.616,0,0,1,5.61,5.61v1.66a5.616,5.616,0,0,1-5.61,5.61ZM8.77,5.61v1.66A3.739,3.739,0,0,0,12.505,11h.1a3.739,3.739,0,0,0,3.735-3.735V5.61A3.739,3.739,0,0,0,12.6,1.875h-.1A3.739,3.739,0,0,0,8.77,5.61Z" fill="#fff"/>
</svg>
