<svg xmlns="http://www.w3.org/2000/svg" width="48" height="48" viewBox="0 0 48 48">
  <path id="Union_10" data-name="Union 10" d="M6.592,48A6.6,6.6,0,0,1,0,41.408V10.965A6.6,6.6,0,0,1,5.791,4.427V3.291a3.291,3.291,0,0,1,6.582,0V4.374H15.74V3.291a3.288,3.288,0,0,1,6.576,0V4.374h3.368V3.291a3.288,3.288,0,1,1,6.576,0V4.374h3.368V3.291a3.291,3.291,0,0,1,6.582,0V4.427A6.6,6.6,0,0,1,48,10.965V41.408A6.6,6.6,0,0,1,41.408,48ZM1.8,41.408A4.8,4.8,0,0,0,6.592,46.2H41.408A4.8,4.8,0,0,0,46.2,41.408V15.468H1.8Zm0-30.443v2.7H46.2v-2.7a4.8,4.8,0,0,0-3.994-4.723V7.254a3.291,3.291,0,0,1-6.582,0V6.171H32.26V7.254a3.288,3.288,0,1,1-6.576,0V6.171H22.316V7.254a3.288,3.288,0,1,1-6.576,0V6.171H12.372V7.254a3.291,3.291,0,0,1-6.582,0V6.243A4.8,4.8,0,0,0,1.8,10.965ZM37.425,3.291V7.254a1.494,1.494,0,0,0,2.988,0V3.291a1.494,1.494,0,0,0-2.988,0Zm-29.837,0V7.254a1.494,1.494,0,0,0,2.988,0V3.291a1.494,1.494,0,0,0-2.988,0Zm19.893,0V7.254a1.491,1.491,0,1,0,2.982,0V3.291a1.491,1.491,0,1,0-2.982,0Zm-9.944,0V7.254a1.491,1.491,0,1,0,2.982,0V3.291a1.491,1.491,0,1,0-2.982,0ZM35.456,40.729a2.385,2.385,0,0,1-2.382-2.382V34.72a2.386,2.386,0,0,1,2.382-2.382h3.627a2.386,2.386,0,0,1,2.382,2.382v3.627a2.385,2.385,0,0,1-2.382,2.382Zm-.585-6.009v3.627a.586.586,0,0,0,.585.585h3.627a.586.586,0,0,0,.585-.585V34.72a.586.586,0,0,0-.585-.585H35.456A.586.586,0,0,0,34.871,34.72ZM22.186,40.729A2.385,2.385,0,0,1,19.8,38.347V34.72a2.386,2.386,0,0,1,2.382-2.382h3.627A2.386,2.386,0,0,1,28.2,34.72v3.627a2.385,2.385,0,0,1-2.382,2.382ZM21.6,34.72v3.627a.586.586,0,0,0,.585.585h3.627a.586.586,0,0,0,.585-.585V34.72a.586.586,0,0,0-.585-.585H22.186A.586.586,0,0,0,21.6,34.72ZM8.916,40.729a2.385,2.385,0,0,1-2.382-2.382V34.72a2.386,2.386,0,0,1,2.382-2.382h3.627a2.385,2.385,0,0,1,2.382,2.382v3.627a2.384,2.384,0,0,1-2.382,2.382ZM8.331,34.72v3.627a.585.585,0,0,0,.585.585h3.627a.586.586,0,0,0,.585-.585V34.72a.586.586,0,0,0-.585-.585H8.916A.586.586,0,0,0,8.331,34.72Zm13.855-6.366A2.386,2.386,0,0,1,19.8,25.972V22.344a2.385,2.385,0,0,1,2.382-2.382h3.627A2.385,2.385,0,0,1,28.2,22.344v3.627a2.386,2.386,0,0,1-2.382,2.382Zm-.585-6.01v3.627a.586.586,0,0,0,.585.585h3.627a.586.586,0,0,0,.585-.585V22.344a.586.586,0,0,0-.585-.585H22.186A.586.586,0,0,0,21.6,22.344ZM8.916,28.354a2.386,2.386,0,0,1-2.382-2.382V22.344a2.385,2.385,0,0,1,2.382-2.382h3.627a2.384,2.384,0,0,1,2.382,2.382v3.627a2.385,2.385,0,0,1-2.382,2.382Zm-.585-6.01v3.627a.586.586,0,0,0,.585.585h3.627a.586.586,0,0,0,.585-.585V22.344a.586.586,0,0,0-.585-.585H8.916A.586.586,0,0,0,8.331,22.344Zm27.252,4.781L33.02,24.562a.9.9,0,1,1,1.271-1.271l1.928,1.928,4.03-4.028v0a.9.9,0,0,1,1.271,1.271l-4.665,4.665a.9.9,0,0,1-1.271,0Z" fill="#fff"/>
</svg>
