<svg xmlns="http://www.w3.org/2000/svg" width="47.999" height="48" viewBox="0 0 47.999 48">
  <path id="Union_6" data-name="Union 6" d="M2.414,34.484A24,24,0,0,1,38.842,5.139a5.315,5.315,0,0,1,4.167.292l1.559-.072a2.122,2.122,0,0,1,.956,4.016l-1.816.916A24,24,0,1,1,2.414,34.484Zm23.981-10a4.533,4.533,0,0,0-.672,2.924l-.061,5.648c-.023,2.313-.063,6.184-2.891,7.126-5.336,1.778-5.921,3.632-6.016,5.2A22.574,22.574,0,0,0,46.584,23.994q0-.96-.081-1.907a17.83,17.83,0,0,0-5.1,1.088c-.561.221-1.113.483-1.7.76a10.577,10.577,0,0,1-5.1,1.439,10.519,10.519,0,0,1-3.221-.871c-.478-.187-.93-.362-1.391-.5a5.662,5.662,0,0,0-1.62-.255A2.55,2.55,0,0,0,26.395,24.485ZM10.581,41.5a11,11,0,0,0,.534,1.03A22.551,22.551,0,0,0,15.4,44.875c.337-2.438,1.861-4.349,6.925-6.036,1.725-.575,1.9-3.293,1.922-5.8L24.3,27.4a5.8,5.8,0,0,1,1.022-3.841c1.062-1.218,2.963-1.556,5.084-.908.512.158,1.009.351,1.49.539a9.321,9.321,0,0,0,2.787.776,9.461,9.461,0,0,0,4.414-1.3c.578-.275,1.175-.559,1.783-.8a19.1,19.1,0,0,1,5.454-1.178,22.355,22.355,0,0,0-3.911-9.742l-5.017,2.53-.6,7.049a.708.708,0,0,1-.43.592L33.86,22.172a.709.709,0,0,1-.959-.464l-1.45-5.232-9.27,4.676A3.135,3.135,0,0,1,18.69,20.7l-3.672-3.247a.709.709,0,0,1,.041-1.094l.482-.368a3.113,3.113,0,0,1,3.272-.334l1.309.627,8.361-5.046L24.958,8.158a.708.708,0,0,1,0-1.065l2.05-1.807a.708.708,0,0,1,.72-.131l6.655,2.531,3.05-1.84a22.59,22.59,0,0,0-20.185-3.4A9.128,9.128,0,0,0,16.905,5.7c.011.131.024.267.037.4a4.352,4.352,0,0,1-.352,2.8,4.416,4.416,0,0,1-2.323,1.62l-.189.078a6.006,6.006,0,0,0-3.149,2.43,7.965,7.965,0,0,0-.677,2.173c-.089.423-.183.86-.309,1.293A4.068,4.068,0,0,1,7,19.66a2.966,2.966,0,0,1-.5.04,5.379,5.379,0,0,1-3.11-1.428c-.354-.267-.7-.519-1.039-.729a22.539,22.539,0,0,0,7.108,23.72.68.68,0,0,1,.179-.121.709.709,0,0,1,.937.356ZM32.17,13.766l1.883,6.786,1.377-.582.723-8.45ZM16.619,16.977l3.011,2.662a1.718,1.718,0,0,0,1.915.246l9.52-4.8-.408-1.471a.71.71,0,0,1,.335-.808l5.635-3.181a.709.709,0,0,1,1.053.678l-.129,1.5,7.333-3.7a.707.707,0,0,0,.318-.932.7.7,0,0,0-.634-.4H44.5l-1.621.081a.7.7,0,0,1-.39-.1A3.883,3.883,0,0,0,38.6,6.8L20.528,17.7a.708.708,0,0,1-.673.032L18.2,16.937a1.707,1.707,0,0,0-1.58.04Zm-13.809-.8a11.54,11.54,0,0,1,1.438.96c.9.678,1.681,1.262,2.519,1.121,1.157-.2,1.683-1.7,1.816-2.162.112-.38.2-.775.284-1.191a9.146,9.146,0,0,1,.823-2.562,7.3,7.3,0,0,1,3.848-3.057l.2-.081a3.312,3.312,0,0,0,1.645-1.042,3.262,3.262,0,0,0,.154-1.928c-.015-.146-.029-.288-.04-.429a10.522,10.522,0,0,1,.165-2.8A22.7,22.7,0,0,0,2.81,16.179ZM26.5,7.622l3.257,2.851,3.083-1.86L27.625,6.632ZM8.358,39.073a14.915,14.915,0,0,1-.233-2.656c0-.152,0-.3.007-.454A.709.709,0,1,1,9.55,36c0,.139-.006.279-.006.417a13.451,13.451,0,0,0,.21,2.4.709.709,0,0,1-1.4.252Zm.687-5.349a.709.709,0,0,1-.554-.834,21.8,21.8,0,0,1,.821-2.964.709.709,0,0,1,1.337.472,20.373,20.373,0,0,0-.77,2.77.709.709,0,0,1-.695.57A.693.693,0,0,1,9.045,33.724Zm1.783-5.666a.708.708,0,0,1-.313-.952,24.2,24.2,0,0,1,1.544-2.648.709.709,0,1,1,1.175.791,22.863,22.863,0,0,0-1.454,2.493.708.708,0,0,1-.952.315Zm3-5.262a.71.71,0,0,1,.128-.765,14.644,14.644,0,0,1,1.062-1.045.709.709,0,1,1,.939,1.062,13.3,13.3,0,0,0-.959.944.708.708,0,0,1-1.17-.2Zm29.47-4.6a19.967,19.967,0,0,0-.81-2.208.709.709,0,0,1,1.3-.565,21.675,21.675,0,0,1,.866,2.363.71.71,0,0,1-1.357.41Z" transform="translate(-0.001 0)" fill="#fff"/>
</svg>
