<svg xmlns="http://www.w3.org/2000/svg" width="37.552" height="48" viewBox="0 0 37.552 48">
  <path id="Union_5" data-name="Union 5" d="M8.015,47.459C3.735,47.018.759,46.447.707,46.447a.874.874,0,0,1-.7-.87V36.511a1.055,1.055,0,0,1,0-.19c.765-3.352,3.174-5.857,7.044-7.4V13.472C7.049,6.077,12.308,0,18.763,0S30.477,6.049,30.477,13.472V28.92c3.868,1.545,6.283,4.049,7.07,7.407a.752.752,0,0,1,0,.192v9.058a.87.87,0,0,1-.708.87c-.054.006-3.04.571-7.324,1.013A95.06,95.06,0,0,1,19.761,48H18.746l-.7,0A93.674,93.674,0,0,1,8.015,47.459Zm20.63-1.641V40.944a.868.868,0,0,1,1.736,0v4.694c2.511-.286,4.453-.6,5.432-.763V36.623c-.8-3.306-3.47-5.2-6.488-6.283a23.292,23.292,0,0,0-4.131-1.031,25.974,25.974,0,0,1-5.476,6.855l-.14.1A8.35,8.35,0,0,1,16.228,38a.887.887,0,1,1-.37-1.734,5.664,5.664,0,0,0,1.736-.746,20.638,20.638,0,0,1-5.206-6.23,22.945,22.945,0,0,0-4.1,1.034c-3.065,1.095-5.737,2.993-6.537,6.3v8.263c.982.162,2.927.466,5.434.752V40.944a.868.868,0,0,1,1.736,0v4.874a91.6,91.6,0,0,0,9.829.453A90.335,90.335,0,0,0,28.644,45.819ZM13.663,27.938a19.171,19.171,0,0,0,5.36,6.463,25.656,25.656,0,0,0,4.9-6.491.86.86,0,0,1,.867-.455,27.224,27.224,0,0,1,3.948.864V13.472c0-6.447-4.469-11.711-9.978-11.711s-9.98,5.264-9.98,11.711l.063,14.847a27.334,27.334,0,0,1,3.948-.864.865.865,0,0,1,.87.482Zm8.77,11.495a.867.867,0,0,1-.87-.864V35.531a.872.872,0,0,1,.87-.87h6.221a.871.871,0,0,1,.867.87v3.037a.866.866,0,0,1-.867.864ZM23.3,37.7h4.486V36.4H23.3ZM10.53,16.583a9.047,9.047,0,0,1,1.734-6.441,8.146,8.146,0,0,1,6.17-2.6.853.853,0,0,1,.658.269c.036.041,3.481,3.64,7.193,4.6h.052a7.317,7.317,0,0,0,1.163.2.865.865,0,0,1,.79.935s0,.006,0,.006a.864.864,0,0,1-.935.793h-.4v2.241c0,5.942-3.689,10.776-8.227,10.776C14.218,27.359,10.53,22.542,10.53,16.583Zm3.07-5.33a7.617,7.617,0,0,0-1.363,5.207.354.354,0,0,1,.011.076c0,4.982,2.906,9.042,6.491,9.042s6.488-4.055,6.488-9.042V13.881a20.084,20.084,0,0,1-7.1-4.615A6.213,6.213,0,0,0,13.6,11.253Z" transform="translate(0)" fill="#fff"/>
</svg>
