<svg xmlns="http://www.w3.org/2000/svg" width="48" height="38.354" viewBox="0 0 48 38.354">
  <path id="Union_3" data-name="Union 3" d="M5.179,38.355A5.185,5.185,0,0,1,0,33.176V8.661A5.185,5.185,0,0,1,5.179,3.482H18.305l-.032-.124A2.684,2.684,0,0,1,20.872,0h6.257a2.684,2.684,0,0,1,2.6,3.358l-.032.124H42.821A5.185,5.185,0,0,1,48,8.661V33.176a5.185,5.185,0,0,1-5.179,5.179ZM1.875,8.661V33.176a3.308,3.308,0,0,0,3.3,3.3H42.821a3.308,3.308,0,0,0,3.3-3.3V8.661a3.307,3.307,0,0,0-3.3-3.3H29.208l-.486,1.875h3.555a.937.937,0,1,1,0,1.875H15.723a.937.937,0,1,1,0-1.875h3.555l-.486-1.875H5.179A3.308,3.308,0,0,0,1.875,8.661ZM20.232,2.189a.8.8,0,0,0-.144.7l1.126,4.345h5.57l1.126-4.345a.809.809,0,0,0-.783-1.012H20.872A.8.8,0,0,0,20.232,2.189ZM22.62,34.417a.938.938,0,0,1-.937-.937V12.107a.938.938,0,0,1,.937-.937H43.125a.937.937,0,0,1,.937.937V33.479a.937.937,0,0,1-.937.937Zm.938-1.875h18.63V22.793H23.557Zm0-11.624h18.63V13.044H23.557ZM4.875,34.417a.937.937,0,0,1,0-1.875H17.88a.937.937,0,1,1,0,1.875Zm22.432-4.991a.938.938,0,0,1,0-1.875h11.13a.938.938,0,0,1,0,1.875Zm-22.432,0a.938.938,0,0,1,0-1.875H17.88a.938.938,0,0,1,0,1.875Zm1.54-4.866a.938.938,0,0,1-.937-.937,4.7,4.7,0,0,1,2.544-4.17,4.838,4.838,0,1,1,6.712,0,4.7,4.7,0,0,1,2.544,4.17.937.937,0,0,1-.937.937Zm1.1-1.875h7.729a2.822,2.822,0,0,0-2.657-1.88H10.17A2.822,2.822,0,0,0,7.513,22.684Zm.9-6.7a2.963,2.963,0,1,0,2.963-2.942A2.956,2.956,0,0,0,8.414,15.987Z" fill="#fff"/>
</svg>
