<svg xmlns="http://www.w3.org/2000/svg" width="48" height="37.658" viewBox="0 0 48 37.658">
  <path id="Union_1" data-name="Union 1" d="M36.114,37.658A1.143,1.143,0,0,1,35,36.782a2.089,2.089,0,0,0-2.043-1.6,2.116,2.116,0,0,0-2.043,1.6,1.143,1.143,0,0,1-1.111.875H4.572A4.571,4.571,0,0,1,0,33.086V15.075A4.571,4.571,0,0,1,4.572,10.5H10.26L23.445,5.313a1.143,1.143,0,0,1,1.333.379,1.943,1.943,0,0,0,.427.443,2.153,2.153,0,0,0,2.089.318,1.947,1.947,0,0,0,.471-.261,2.1,2.1,0,0,0,.841-1.963,1.143,1.143,0,0,1,.713-1.223L36.133.332a4.535,4.535,0,0,1,5.9,2.5l.02.051,1.483,3.769a1.143,1.143,0,0,1-2.1.908q-.015-.035-.028-.072L39.929,3.722A2.251,2.251,0,0,0,38.72,2.465a2.21,2.21,0,0,0-1.735-.021L30.9,4.83A4.382,4.382,0,0,1,29.17,7.987a4.282,4.282,0,0,1-1.029.578,4.423,4.423,0,0,1-4.263-.583,2.512,2.512,0,0,1-.336-.263L16.468,10.5H29.806a1.143,1.143,0,0,1,1.111.873,2.119,2.119,0,0,0,2.043,1.6A2.091,2.091,0,0,0,35,11.377a1.143,1.143,0,0,1,1.111-.873h7.314A4.571,4.571,0,0,1,48,15.075V33.086a4.571,4.571,0,0,1-4.571,4.571ZM2.286,15.075V33.086a2.286,2.286,0,0,0,2.286,2.286H29.01A4.444,4.444,0,0,1,32.96,32.9a4.373,4.373,0,0,1,3.952,2.469h6.517a2.286,2.286,0,0,0,2.286-2.286V15.075a2.286,2.286,0,0,0-2.286-2.286H36.912a4.377,4.377,0,0,1-3.952,2.469,4.444,4.444,0,0,1-3.95-2.469H4.572A2.286,2.286,0,0,0,2.286,15.075ZM31.817,30.213v-.836a1.143,1.143,0,1,1,2.286,0v.836a1.143,1.143,0,1,1-2.286,0Zm9.326-1.561V19.509a1.143,1.143,0,0,1,2.286,0v9.143a1.143,1.143,0,1,1-2.286,0Zm-26.681-.615a1.143,1.143,0,0,1,.457-.914l2.515-1.9H10.265a1.143,1.143,0,0,1-1.026-.64L8.19,22.437a1.144,1.144,0,1,1,2.057-1l.724,1.5h6.464l-2.521-1.9a1.143,1.143,0,1,1,1.371-1.829l4.957,3.733h3.512a1.143,1.143,0,0,1,0,2.286H21.226L16.29,28.949a1.118,1.118,0,0,1-.686.231h0A1.143,1.143,0,0,1,14.462,28.037ZM31.817,24.5v-.836a1.143,1.143,0,1,1,2.286,0V24.5a1.143,1.143,0,1,1-2.286,0Zm4.754-.418V19.509a1.143,1.143,0,0,1,2.286,0v4.571a1.143,1.143,0,1,1-2.286,0Zm-4.754-5.3v-.836a1.143,1.143,0,1,1,2.286,0v.836a1.143,1.143,0,1,1-2.286,0Z" transform="translate(0 0)" fill="#fff"/>
</svg>
