<svg xmlns="http://www.w3.org/2000/svg" width="47.994" height="48" viewBox="0 0 47.994 48">
  <path id="Union_7" data-name="Union 7" d="M22.279,47.438V43.2a8.176,8.176,0,0,1,3.075-6.381H2.062A2.061,2.061,0,0,1,0,34.757V2.062A2.061,2.061,0,0,1,2.062,0H34.75a2.061,2.061,0,0,1,2.062,2.062V14.24a3.663,3.663,0,0,1,2.783,1.86H39.6a2.99,2.99,0,0,1,2.182.892c.832.87,1.155,2.295.99,4.221a2.581,2.581,0,0,1-.713,5.062h-.015a8.479,8.479,0,0,1-4.454,5.857c.053,1.463.472,2.452,2.017,2.835a1.2,1.2,0,0,1,1.035-.412,8.568,8.568,0,0,1,3.96,1.425,1.227,1.227,0,0,1,.5.682,7.422,7.422,0,0,1,2.812,3.495,1.227,1.227,0,0,1-.128,1.1.315.315,0,0,1-.082.09,8.066,8.066,0,0,1,.225,1.844V47.43a.562.562,0,1,1-1.124,0V43.193c0-.2-.023-.383-.038-.578a16.336,16.336,0,0,1-7.477,5.34.509.509,0,0,1-.18.03.562.562,0,0,1-.18-1.095,15.712,15.712,0,0,0,7.326-5.437c.233-.315.428-.6.578-.825a.1.1,0,0,0,.015-.1,6.4,6.4,0,0,0-2-2.692c-1.32,2.227-5.857,8.316-15.943,9.2v.383a.562.562,0,1,1-1.124,0V41.881a.562.562,0,1,1,1.124,0v.075c6.464-1.155,9.111-4.155,10.139-5.977a3.522,3.522,0,0,1-2.573-3.472,5.927,5.927,0,0,1-1.365.165,5.732,5.732,0,0,1-1.44-.18A8.8,8.8,0,0,1,33.2,34.27a2.955,2.955,0,0,1-2.745,1.875A7.063,7.063,0,0,0,23.4,43.2v4.237a.563.563,0,0,1-1.125,0Zm18.147-11.7c-.075.172-.173.382-.3.622-1.08,2-3.967,5.489-11.211,6.734v2.826c9.824-.9,14.038-6.981,15.1-8.856a.142.142,0,0,0-.045-.172,7.516,7.516,0,0,0-3.442-1.238A.145.145,0,0,0,40.426,35.74Zm-17.4-.045h4.184l.1-.045V33.767H23.029Zm-5.407,0H21.9V33.767H17.622ZM6.532,19.594v16.1H16.5v-16.1a.566.566,0,0,0-.562-.562H7.094A.567.567,0,0,0,6.532,19.594ZM1.125,34.757a.938.938,0,0,0,.937.937H5.407V33.767H1.125Zm27.31.525a8.173,8.173,0,0,1,2.025-.263,1.818,1.818,0,0,0,1.695-1.155c.016-.03.023-.067.038-.1H28.435Zm2.707-2.64H32.5c.03-.165.059-.337.1-.54a7.063,7.063,0,0,1-1.455-.915Zm-5.414,0h4.282V30.715H25.728Zm-5.407,0H24.6V30.715H20.322Zm-2.7,0H19.2V30.715H17.622Zm-16.5,0H5.407V30.715H1.125ZM30.8,20.592A3.186,3.186,0,0,0,29,23.7c0,.007-.007.015-.007.03s.007.022.007.037a9.7,9.7,0,0,0,.532,3.112,8,8,0,0,0,1.695,2.865.1.1,0,0,0,.022.03A5.3,5.3,0,0,0,35.1,31.54c3.367,0,6.1-3.517,6.112-7.851a3.194,3.194,0,0,0-1.8-3.1A3.772,3.772,0,0,0,35.5,21.7a.557.557,0,0,1-.788,0,4.232,4.232,0,0,0-2.882-1.3A2.77,2.77,0,0,0,30.8,20.592Zm-2.362,9h1.23a9.654,9.654,0,0,1-1.035-1.927h-.2Zm-5.407,0h4.282V27.663H23.029Zm-5.407,0H21.9V27.663H17.622Zm-16.5,0H5.407V27.663H1.125Zm14.81-11.683a1.69,1.69,0,0,1,1.687,1.687v6.944H28.248c-.023-.09-.045-.188-.067-.277h-.008a2.581,2.581,0,0,1-.84-5.024,6.732,6.732,0,0,1,.96-4.417,5.382,5.382,0,0,1,1.4-1.365,1.257,1.257,0,0,1-.21-.675V13.348a1.319,1.319,0,0,1,1.312-1.313h4.9V10.221H1.125V26.538H5.407V19.594a1.69,1.69,0,0,1,1.687-1.687Zm26.419,5.842a11.792,11.792,0,0,1-.105,1.372,1.456,1.456,0,0,0,1.267-1.44,1.475,1.475,0,0,0-.877-1.342C42.564,22.789,42.473,23.254,42.354,23.749Zm-15.643-.067a1.462,1.462,0,0,0,1.267,1.44,10.028,10.028,0,0,1-.105-1.357,11.953,11.953,0,0,1-.375-1.379A1.45,1.45,0,0,0,26.711,23.681Zm2.519-6.239a5.736,5.736,0,0,0-.75,3.87,3.653,3.653,0,0,1,1.912-1.762,4.767,4.767,0,0,1,4.724,1,4.767,4.767,0,0,1,4.724-1,3.639,3.639,0,0,1,1.822,1.582c.173-1.95-.24-2.909-.69-3.382a1.976,1.976,0,0,0-1.635-.525.568.568,0,0,1-.645-.375c-.367-1.11-1.507-1.627-3.577-1.635C32.222,15.215,30.243,15.965,29.23,17.442ZM30.6,13.348V14.78a.173.173,0,0,0,.06.128,10.836,10.836,0,0,1,4.447-.81c.15,0,.352,0,.578.007V13.16h-4.9A.186.186,0,0,0,30.6,13.348ZM1.125,9.1H35.687V7.289H1.125Zm0-7.041v4.1H35.687v-4.1a.938.938,0,0,0-.937-.937H2.062A.938.938,0,0,0,1.125,2.062Zm19.954,14.03a1.318,1.318,0,0,1-1.312-1.312V13.348a1.319,1.319,0,0,1,1.312-1.313h5.272a1.319,1.319,0,0,1,1.313,1.313V14.78a1.314,1.314,0,0,1-1.313,1.312Zm-.187-2.744V14.78a.185.185,0,0,0,.187.188h5.272a.186.186,0,0,0,.188-.188V13.348a.186.186,0,0,0-.188-.188H21.079A.185.185,0,0,0,20.892,13.348Zm-6.8,2.744a1.318,1.318,0,0,1-1.313-1.312V13.348a1.319,1.319,0,0,1,1.313-1.313h2.557a1.309,1.309,0,0,1,1.312,1.313V14.78a1.318,1.318,0,0,1-1.312,1.312ZM13.9,13.348V14.78a.186.186,0,0,0,.188.188h2.557a.185.185,0,0,0,.187-.188V13.348a.185.185,0,0,0-.187-.188H14.09A.186.186,0,0,0,13.9,13.348ZM4.244,16.092A1.318,1.318,0,0,1,2.932,14.78V13.348a1.319,1.319,0,0,1,1.313-1.313H9.658a1.309,1.309,0,0,1,1.313,1.313V14.78a1.318,1.318,0,0,1-1.313,1.312Zm-.188-2.744V14.78a.186.186,0,0,0,.188.188H9.658a.186.186,0,0,0,.188-.188V13.348a.186.186,0,0,0-.188-.188H4.244A.186.186,0,0,0,4.057,13.348Z" fill="#fff"/>
</svg>
